<mxfile host="Electron" modified="2024-03-20T08:24:45.580Z" agent="Mozilla/5.0 (Windows NT 10.0; Win64; x64) AppleWebKit/537.36 (KHTML, like Gecko) draw.io/21.8.2 Chrome/114.0.5735.289 Electron/25.8.1 Safari/537.36" etag="YWvdBUTAmE6tr4h4fCXQ" version="21.8.2" type="device">
  <diagram name="第 1 页" id="WNL4h8cllI2NuJqN2qju">
    <mxGraphModel dx="1480" dy="2036" grid="1" gridSize="10" guides="1" tooltips="1" connect="1" arrows="1" fold="1" page="1" pageScale="1" pageWidth="827" pageHeight="1169" math="0" shadow="0">
      <root>
        <mxCell id="0" />
        <mxCell id="1" parent="0" />
        <mxCell id="brjPFkR36IANvIQPZ_NX-1" value="" style="rounded=0;whiteSpace=wrap;html=1;" parent="1" vertex="1">
          <mxGeometry x="19" y="-310" width="790" height="2130" as="geometry" />
        </mxCell>
        <mxCell id="brjPFkR36IANvIQPZ_NX-2" value="HTML" style="text;strokeColor=none;align=center;fillColor=none;html=1;verticalAlign=middle;whiteSpace=wrap;rounded=0;" parent="1" vertex="1">
          <mxGeometry x="19" y="-310" width="41" height="20" as="geometry" />
        </mxCell>
        <mxCell id="brjPFkR36IANvIQPZ_NX-4" value="" style="rounded=0;whiteSpace=wrap;html=1;align=left;" parent="1" vertex="1">
          <mxGeometry x="30" y="-280" width="770" height="130" as="geometry" />
        </mxCell>
        <mxCell id="brjPFkR36IANvIQPZ_NX-6" value="topbar" style="text;strokeColor=none;align=center;fillColor=none;html=1;verticalAlign=middle;whiteSpace=wrap;rounded=0;" parent="1" vertex="1">
          <mxGeometry x="30" y="-170" width="50" height="20" as="geometry" />
        </mxCell>
        <mxCell id="brjPFkR36IANvIQPZ_NX-7" value="" style="rounded=0;whiteSpace=wrap;html=1;" parent="1" vertex="1">
          <mxGeometry x="39" y="-270" width="750" height="90" as="geometry" />
        </mxCell>
        <mxCell id="brjPFkR36IANvIQPZ_NX-8" value="container" style="text;strokeColor=none;align=center;fillColor=none;html=1;verticalAlign=middle;whiteSpace=wrap;rounded=0;" parent="1" vertex="1">
          <mxGeometry x="39" y="-200" width="51" height="20" as="geometry" />
        </mxCell>
        <mxCell id="brjPFkR36IANvIQPZ_NX-9" value="请登录" style="rounded=0;whiteSpace=wrap;html=1;" parent="1" vertex="1">
          <mxGeometry x="50" y="-260" width="360" height="60" as="geometry" />
        </mxCell>
        <mxCell id="brjPFkR36IANvIQPZ_NX-10" value="订单、购物车、合作、招商" style="rounded=0;whiteSpace=wrap;html=1;" parent="1" vertex="1">
          <mxGeometry x="430" y="-260" width="340" height="60" as="geometry" />
        </mxCell>
        <mxCell id="brjPFkR36IANvIQPZ_NX-11" value="topbar-left" style="text;strokeColor=none;align=center;fillColor=none;html=1;verticalAlign=middle;whiteSpace=wrap;rounded=0;" parent="1" vertex="1">
          <mxGeometry x="50" y="-220" width="70" height="20" as="geometry" />
        </mxCell>
        <mxCell id="brjPFkR36IANvIQPZ_NX-12" value="topbar-nav" style="text;strokeColor=none;align=center;fillColor=none;html=1;verticalAlign=middle;whiteSpace=wrap;rounded=0;" parent="1" vertex="1">
          <mxGeometry x="430" y="-220" width="70" height="20" as="geometry" />
        </mxCell>
        <mxCell id="brjPFkR36IANvIQPZ_NX-13" value="" style="rounded=0;whiteSpace=wrap;html=1;" parent="1" vertex="1">
          <mxGeometry x="30" y="-130" width="770" height="150" as="geometry" />
        </mxCell>
        <mxCell id="brjPFkR36IANvIQPZ_NX-14" value="page-header" style="text;strokeColor=none;align=center;fillColor=none;html=1;verticalAlign=middle;whiteSpace=wrap;rounded=0;" parent="1" vertex="1">
          <mxGeometry x="30" width="80" height="20" as="geometry" />
        </mxCell>
        <mxCell id="brjPFkR36IANvIQPZ_NX-15" value="" style="rounded=0;whiteSpace=wrap;html=1;" parent="1" vertex="1">
          <mxGeometry x="39" y="-120" width="751" height="120" as="geometry" />
        </mxCell>
        <mxCell id="brjPFkR36IANvIQPZ_NX-16" value="container" style="text;strokeColor=none;align=center;fillColor=none;html=1;verticalAlign=middle;whiteSpace=wrap;rounded=0;" parent="1" vertex="1">
          <mxGeometry x="39" y="-20" width="51" height="20" as="geometry" />
        </mxCell>
        <mxCell id="brjPFkR36IANvIQPZ_NX-17" value="logo" style="rounded=0;whiteSpace=wrap;html=1;" parent="1" vertex="1">
          <mxGeometry x="50" y="-90" width="190" height="60" as="geometry" />
        </mxCell>
        <mxCell id="brjPFkR36IANvIQPZ_NX-18" value="input-搜索" style="rounded=0;whiteSpace=wrap;html=1;" parent="1" vertex="1">
          <mxGeometry x="430" y="-90" width="340" height="60" as="geometry" />
        </mxCell>
        <mxCell id="brjPFkR36IANvIQPZ_NX-19" value="" style="rounded=0;whiteSpace=wrap;html=1;" parent="1" vertex="1">
          <mxGeometry x="30" y="50" width="770" height="130" as="geometry" />
        </mxCell>
        <mxCell id="brjPFkR36IANvIQPZ_NX-20" value="page-nav" style="text;strokeColor=none;align=center;fillColor=none;html=1;verticalAlign=middle;whiteSpace=wrap;rounded=0;" parent="1" vertex="1">
          <mxGeometry x="30" y="150" width="60" height="30" as="geometry" />
        </mxCell>
        <mxCell id="brjPFkR36IANvIQPZ_NX-21" value="" style="rounded=0;whiteSpace=wrap;html=1;" parent="1" vertex="1">
          <mxGeometry x="38" y="60" width="751" height="90" as="geometry" />
        </mxCell>
        <mxCell id="brjPFkR36IANvIQPZ_NX-22" value="container" style="text;strokeColor=none;align=center;fillColor=none;html=1;verticalAlign=middle;whiteSpace=wrap;rounded=0;" parent="1" vertex="1">
          <mxGeometry x="39" y="130" width="51" height="20" as="geometry" />
        </mxCell>
        <mxCell id="brjPFkR36IANvIQPZ_NX-23" value="全部分类" style="rounded=0;whiteSpace=wrap;html=1;" parent="1" vertex="1">
          <mxGeometry x="50" y="70" width="190" height="60" as="geometry" />
        </mxCell>
        <mxCell id="brjPFkR36IANvIQPZ_NX-24" value="all-cates" style="text;strokeColor=none;align=center;fillColor=none;html=1;verticalAlign=middle;whiteSpace=wrap;rounded=0;" parent="1" vertex="1">
          <mxGeometry x="50" y="110" width="51" height="20" as="geometry" />
        </mxCell>
        <mxCell id="brjPFkR36IANvIQPZ_NX-25" value="服装，美妆，超市，团购" style="rounded=0;whiteSpace=wrap;html=1;" parent="1" vertex="1">
          <mxGeometry x="250" y="70" width="530" height="60" as="geometry" />
        </mxCell>
        <mxCell id="brjPFkR36IANvIQPZ_NX-26" value="nav" style="text;strokeColor=none;align=center;fillColor=none;html=1;verticalAlign=middle;whiteSpace=wrap;rounded=0;" parent="1" vertex="1">
          <mxGeometry x="250" y="110" width="51" height="20" as="geometry" />
        </mxCell>
        <mxCell id="brjPFkR36IANvIQPZ_NX-27" value="" style="rounded=0;whiteSpace=wrap;html=1;" parent="1" vertex="1">
          <mxGeometry x="30" y="200" width="770" height="1590" as="geometry" />
        </mxCell>
        <mxCell id="brjPFkR36IANvIQPZ_NX-28" value="page-main" style="text;strokeColor=none;align=center;fillColor=none;html=1;verticalAlign=middle;whiteSpace=wrap;rounded=0;" parent="1" vertex="1">
          <mxGeometry x="30" y="1760" width="60" height="30" as="geometry" />
        </mxCell>
        <mxCell id="brjPFkR36IANvIQPZ_NX-29" value="" style="rounded=0;whiteSpace=wrap;html=1;" parent="1" vertex="1">
          <mxGeometry x="38" y="210" width="752" height="1530" as="geometry" />
        </mxCell>
        <mxCell id="brjPFkR36IANvIQPZ_NX-30" value="container" style="text;strokeColor=none;align=center;fillColor=none;html=1;verticalAlign=middle;whiteSpace=wrap;rounded=0;" parent="1" vertex="1">
          <mxGeometry x="39" y="1720" width="51" height="20" as="geometry" />
        </mxCell>
        <mxCell id="brjPFkR36IANvIQPZ_NX-31" value="路径导航：手机、数码、通信、苹果" style="rounded=0;whiteSpace=wrap;html=1;" parent="1" vertex="1">
          <mxGeometry x="50" y="220" width="300" height="60" as="geometry" />
        </mxCell>
        <mxCell id="brjPFkR36IANvIQPZ_NX-32" value="path-nav" style="text;strokeColor=none;align=center;fillColor=none;html=1;verticalAlign=middle;whiteSpace=wrap;rounded=0;" parent="1" vertex="1">
          <mxGeometry x="50" y="250" width="60" height="30" as="geometry" />
        </mxCell>
        <mxCell id="brjPFkR36IANvIQPZ_NX-33" value="" style="rounded=0;whiteSpace=wrap;html=1;" parent="1" vertex="1">
          <mxGeometry x="50" y="290" width="730" height="590" as="geometry" />
        </mxCell>
        <mxCell id="brjPFkR36IANvIQPZ_NX-34" value="product" style="text;strokeColor=none;align=center;fillColor=none;html=1;verticalAlign=middle;whiteSpace=wrap;rounded=0;" parent="1" vertex="1">
          <mxGeometry x="55" y="850" width="50" height="20" as="geometry" />
        </mxCell>
        <mxCell id="brjPFkR36IANvIQPZ_NX-35" value="" style="rounded=0;whiteSpace=wrap;html=1;" parent="1" vertex="1">
          <mxGeometry x="60" y="300" width="300" height="530" as="geometry" />
        </mxCell>
        <mxCell id="brjPFkR36IANvIQPZ_NX-36" value="product-preview" style="text;strokeColor=none;align=center;fillColor=none;html=1;verticalAlign=middle;whiteSpace=wrap;rounded=0;" parent="1" vertex="1">
          <mxGeometry x="60" y="800" width="90" height="30" as="geometry" />
        </mxCell>
        <mxCell id="brjPFkR36IANvIQPZ_NX-37" value="" style="rounded=0;whiteSpace=wrap;html=1;" parent="1" vertex="1">
          <mxGeometry x="70" y="310" width="280" height="290" as="geometry" />
        </mxCell>
        <mxCell id="brjPFkR36IANvIQPZ_NX-38" value="zoom-box" style="text;strokeColor=none;align=center;fillColor=none;html=1;verticalAlign=middle;whiteSpace=wrap;rounded=0;" parent="1" vertex="1">
          <mxGeometry x="70" y="570" width="90" height="30" as="geometry" />
        </mxCell>
        <mxCell id="brjPFkR36IANvIQPZ_NX-39" value="" style="rounded=0;whiteSpace=wrap;html=1;" parent="1" vertex="1">
          <mxGeometry x="80" y="320" width="220" height="250" as="geometry" />
        </mxCell>
        <mxCell id="brjPFkR36IANvIQPZ_NX-40" value="small-image" style="text;strokeColor=none;align=center;fillColor=none;html=1;verticalAlign=middle;whiteSpace=wrap;rounded=0;" parent="1" vertex="1">
          <mxGeometry x="80" y="540" width="80" height="30" as="geometry" />
        </mxCell>
        <mxCell id="brjPFkR36IANvIQPZ_NX-41" value="" style="rounded=0;whiteSpace=wrap;html=1;fillStyle=dashed;dashed=1;dashPattern=12 12;" parent="1" vertex="1">
          <mxGeometry x="320" y="320" width="240" height="250" as="geometry" />
        </mxCell>
        <mxCell id="brjPFkR36IANvIQPZ_NX-42" value="large-image" style="text;strokeColor=none;align=center;fillColor=none;html=1;verticalAlign=middle;whiteSpace=wrap;rounded=0;" parent="1" vertex="1">
          <mxGeometry x="320" y="540" width="80" height="30" as="geometry" />
        </mxCell>
        <mxCell id="brjPFkR36IANvIQPZ_NX-43" value="" style="rounded=0;whiteSpace=wrap;html=1;" parent="1" vertex="1">
          <mxGeometry x="70" y="610" width="280" height="160" as="geometry" />
        </mxCell>
        <mxCell id="brjPFkR36IANvIQPZ_NX-44" value="thumb-box" style="text;strokeColor=none;align=center;fillColor=none;html=1;verticalAlign=middle;whiteSpace=wrap;rounded=0;" parent="1" vertex="1">
          <mxGeometry x="70" y="750" width="80" height="20" as="geometry" />
        </mxCell>
        <mxCell id="brjPFkR36IANvIQPZ_NX-45" value="" style="rounded=0;whiteSpace=wrap;html=1;" parent="1" vertex="1">
          <mxGeometry x="80" y="620" width="50" height="130" as="geometry" />
        </mxCell>
        <mxCell id="brjPFkR36IANvIQPZ_NX-46" value="thumb&lt;br&gt;prev" style="text;strokeColor=none;align=center;fillColor=none;html=1;verticalAlign=middle;whiteSpace=wrap;rounded=0;" parent="1" vertex="1">
          <mxGeometry x="80" y="720" width="50" height="30" as="geometry" />
        </mxCell>
        <mxCell id="brjPFkR36IANvIQPZ_NX-47" value="" style="rounded=0;whiteSpace=wrap;html=1;" parent="1" vertex="1">
          <mxGeometry x="290" y="620" width="50" height="130" as="geometry" />
        </mxCell>
        <mxCell id="brjPFkR36IANvIQPZ_NX-48" value="thumb&lt;br&gt;next" style="text;strokeColor=none;align=center;fillColor=none;html=1;verticalAlign=middle;whiteSpace=wrap;rounded=0;" parent="1" vertex="1">
          <mxGeometry x="290" y="720" width="50" height="30" as="geometry" />
        </mxCell>
        <mxCell id="brjPFkR36IANvIQPZ_NX-49" value="" style="rounded=0;whiteSpace=wrap;html=1;" parent="1" vertex="1">
          <mxGeometry x="140" y="620" width="140" height="130" as="geometry" />
        </mxCell>
        <mxCell id="brjPFkR36IANvIQPZ_NX-50" value="thumb-content" style="text;strokeColor=none;align=center;fillColor=none;html=1;verticalAlign=middle;whiteSpace=wrap;rounded=0;" parent="1" vertex="1">
          <mxGeometry x="150" y="730" width="90" height="20" as="geometry" />
        </mxCell>
        <mxCell id="brjPFkR36IANvIQPZ_NX-51" value="" style="rounded=0;whiteSpace=wrap;html=1;dashed=1;dashPattern=12 12;fillStyle=dashed;glass=0;shadow=0;" parent="1" vertex="1">
          <mxGeometry x="140" y="630" width="160" height="100" as="geometry" />
        </mxCell>
        <mxCell id="brjPFkR36IANvIQPZ_NX-52" value="thumb-wrapper" style="text;strokeColor=none;align=center;fillColor=none;html=1;verticalAlign=middle;whiteSpace=wrap;rounded=0;" parent="1" vertex="1">
          <mxGeometry x="145" y="710" width="90" height="20" as="geometry" />
        </mxCell>
        <mxCell id="brjPFkR36IANvIQPZ_NX-53" value="img" style="rounded=0;whiteSpace=wrap;html=1;" parent="1" vertex="1">
          <mxGeometry x="150" y="650" width="40" height="50" as="geometry" />
        </mxCell>
        <mxCell id="brjPFkR36IANvIQPZ_NX-54" value="img" style="rounded=0;whiteSpace=wrap;html=1;" parent="1" vertex="1">
          <mxGeometry x="200" y="650" width="40" height="50" as="geometry" />
        </mxCell>
        <mxCell id="brjPFkR36IANvIQPZ_NX-56" value="" style="rounded=0;whiteSpace=wrap;html=1;" parent="1" vertex="1">
          <mxGeometry x="120" y="350" width="120" height="120" as="geometry" />
        </mxCell>
        <mxCell id="brjPFkR36IANvIQPZ_NX-57" value="mask-box" style="text;strokeColor=none;align=center;fillColor=none;html=1;verticalAlign=middle;whiteSpace=wrap;rounded=0;" parent="1" vertex="1">
          <mxGeometry x="120" y="450" width="70" height="20" as="geometry" />
        </mxCell>
        <mxCell id="brjPFkR36IANvIQPZ_NX-59" value="img" style="rounded=0;whiteSpace=wrap;html=1;dashed=1;dashPattern=12 12;fillStyle=dashed;" parent="1" vertex="1">
          <mxGeometry x="250" y="650" width="40" height="50" as="geometry" />
        </mxCell>
        <mxCell id="3F2KiduaBhPpFBt7jVCu-1" value="" style="rounded=0;whiteSpace=wrap;html=1;" vertex="1" parent="1">
          <mxGeometry x="50" y="890" width="730" height="810" as="geometry" />
        </mxCell>
        <mxCell id="3F2KiduaBhPpFBt7jVCu-2" value="product-section" style="text;strokeColor=none;align=center;fillColor=none;html=1;verticalAlign=middle;whiteSpace=wrap;rounded=0;" vertex="1" parent="1">
          <mxGeometry x="50" y="1670" width="90" height="30" as="geometry" />
        </mxCell>
        <mxCell id="3F2KiduaBhPpFBt7jVCu-3" value="" style="rounded=0;whiteSpace=wrap;html=1;" vertex="1" parent="1">
          <mxGeometry x="60" y="900" width="250" height="740" as="geometry" />
        </mxCell>
        <mxCell id="3F2KiduaBhPpFBt7jVCu-4" value="product-siderbar" style="text;strokeColor=none;align=center;fillColor=none;html=1;verticalAlign=middle;whiteSpace=wrap;rounded=0;" vertex="1" parent="1">
          <mxGeometry x="60" y="1610" width="95" height="30" as="geometry" />
        </mxCell>
        <mxCell id="3F2KiduaBhPpFBt7jVCu-5" value="" style="rounded=0;whiteSpace=wrap;html=1;" vertex="1" parent="1">
          <mxGeometry x="70" y="910" width="230" height="100" as="geometry" />
        </mxCell>
        <mxCell id="3F2KiduaBhPpFBt7jVCu-6" value="tab-nav" style="text;strokeColor=none;align=center;fillColor=none;html=1;verticalAlign=middle;whiteSpace=wrap;rounded=0;" vertex="1" parent="1">
          <mxGeometry x="70" y="990" width="50" height="20" as="geometry" />
        </mxCell>
        <mxCell id="3F2KiduaBhPpFBt7jVCu-7" value="" style="rounded=0;whiteSpace=wrap;html=1;" vertex="1" parent="1">
          <mxGeometry x="80" y="930" width="100" height="40" as="geometry" />
        </mxCell>
        <mxCell id="3F2KiduaBhPpFBt7jVCu-8" value="" style="rounded=0;whiteSpace=wrap;html=1;" vertex="1" parent="1">
          <mxGeometry x="190" y="930" width="100" height="40" as="geometry" />
        </mxCell>
        <mxCell id="3F2KiduaBhPpFBt7jVCu-9" value="tab-nav-item" style="text;strokeColor=none;align=center;fillColor=none;html=1;verticalAlign=middle;whiteSpace=wrap;rounded=0;" vertex="1" parent="1">
          <mxGeometry x="80" y="950" width="80" height="20" as="geometry" />
        </mxCell>
        <mxCell id="3F2KiduaBhPpFBt7jVCu-10" value="tab-nav-item" style="text;strokeColor=none;align=center;fillColor=none;html=1;verticalAlign=middle;whiteSpace=wrap;rounded=0;" vertex="1" parent="1">
          <mxGeometry x="190" y="950" width="80" height="20" as="geometry" />
        </mxCell>
        <mxCell id="3F2KiduaBhPpFBt7jVCu-11" value="" style="rounded=0;whiteSpace=wrap;html=1;" vertex="1" parent="1">
          <mxGeometry x="70" y="1030" width="230" height="580" as="geometry" />
        </mxCell>
        <mxCell id="3F2KiduaBhPpFBt7jVCu-12" value="tab-panel" style="text;strokeColor=none;align=center;fillColor=none;html=1;verticalAlign=middle;whiteSpace=wrap;rounded=0;" vertex="1" parent="1">
          <mxGeometry x="70" y="1590" width="60" height="20" as="geometry" />
        </mxCell>
        <mxCell id="3F2KiduaBhPpFBt7jVCu-13" value="" style="rounded=0;whiteSpace=wrap;html=1;" vertex="1" parent="1">
          <mxGeometry x="80" y="1060" width="205" height="340" as="geometry" />
        </mxCell>
        <mxCell id="3F2KiduaBhPpFBt7jVCu-14" value="" style="rounded=0;whiteSpace=wrap;html=1;dashed=1;dashPattern=12 12;" vertex="1" parent="1">
          <mxGeometry x="80" y="1410" width="200" height="170" as="geometry" />
        </mxCell>
        <mxCell id="3F2KiduaBhPpFBt7jVCu-15" value="tab-panel-item" style="text;strokeColor=none;align=center;fillColor=none;html=1;verticalAlign=middle;whiteSpace=wrap;rounded=0;" vertex="1" parent="1">
          <mxGeometry x="80" y="1380" width="90" height="20" as="geometry" />
        </mxCell>
        <mxCell id="3F2KiduaBhPpFBt7jVCu-16" value="tab-panel-item" style="text;strokeColor=none;align=center;fillColor=none;html=1;verticalAlign=middle;whiteSpace=wrap;rounded=0;" vertex="1" parent="1">
          <mxGeometry x="80" y="1560" width="90" height="20" as="geometry" />
        </mxCell>
        <mxCell id="3F2KiduaBhPpFBt7jVCu-17" value="" style="rounded=0;whiteSpace=wrap;html=1;" vertex="1" parent="1">
          <mxGeometry x="90" y="1080" width="180" height="70" as="geometry" />
        </mxCell>
        <mxCell id="3F2KiduaBhPpFBt7jVCu-18" value="" style="rounded=0;whiteSpace=wrap;html=1;" vertex="1" parent="1">
          <mxGeometry x="90" y="1190" width="180" height="150" as="geometry" />
        </mxCell>
        <mxCell id="3F2KiduaBhPpFBt7jVCu-19" value="&lt;font style=&quot;font-size: 8px;&quot;&gt;cates&lt;/font&gt;" style="text;strokeColor=none;align=center;fillColor=none;html=1;verticalAlign=middle;whiteSpace=wrap;rounded=0;" vertex="1" parent="1">
          <mxGeometry x="89.99999999999999" y="1140" width="23.75" height="10" as="geometry" />
        </mxCell>
        <mxCell id="3F2KiduaBhPpFBt7jVCu-20" value="&lt;font style=&quot;font-size: 8px;&quot;&gt;products&lt;/font&gt;" style="text;strokeColor=none;align=center;fillColor=none;html=1;verticalAlign=middle;whiteSpace=wrap;rounded=0;" vertex="1" parent="1">
          <mxGeometry x="93.12" y="1330" width="23.75" height="10" as="geometry" />
        </mxCell>
        <mxCell id="3F2KiduaBhPpFBt7jVCu-21" value="li" style="rounded=0;whiteSpace=wrap;html=1;" vertex="1" parent="1">
          <mxGeometry x="111.56" y="1090" width="26.88" height="10" as="geometry" />
        </mxCell>
        <mxCell id="3F2KiduaBhPpFBt7jVCu-22" value="li" style="rounded=0;whiteSpace=wrap;html=1;" vertex="1" parent="1">
          <mxGeometry x="216.56" y="1090" width="26.88" height="10" as="geometry" />
        </mxCell>
        <mxCell id="3F2KiduaBhPpFBt7jVCu-23" value="li" style="rounded=0;whiteSpace=wrap;html=1;" vertex="1" parent="1">
          <mxGeometry x="111.56" y="1110" width="26.88" height="10" as="geometry" />
        </mxCell>
        <mxCell id="3F2KiduaBhPpFBt7jVCu-25" value="&lt;font style=&quot;font-size: 5px;&quot;&gt;img&lt;/font&gt;" style="rounded=0;whiteSpace=wrap;html=1;" vertex="1" parent="1">
          <mxGeometry x="100" y="1210" width="160" height="20" as="geometry" />
        </mxCell>
        <mxCell id="3F2KiduaBhPpFBt7jVCu-27" value="&lt;font style=&quot;font-size: 5px;&quot;&gt;p&lt;/font&gt;" style="rounded=0;whiteSpace=wrap;html=1;" vertex="1" parent="1">
          <mxGeometry x="100" y="1240" width="160" height="25" as="geometry" />
        </mxCell>
        <mxCell id="3F2KiduaBhPpFBt7jVCu-28" value="&lt;font style=&quot;font-size: 5px;&quot;&gt;a&lt;/font&gt;" style="rounded=0;whiteSpace=wrap;html=1;" vertex="1" parent="1">
          <mxGeometry x="100" y="1270" width="160" height="20" as="geometry" />
        </mxCell>
        <mxCell id="3F2KiduaBhPpFBt7jVCu-29" value="&lt;font style=&quot;font-size: 4px;&quot;&gt;li&lt;/font&gt;" style="text;strokeColor=none;align=center;fillColor=none;html=1;verticalAlign=middle;whiteSpace=wrap;rounded=0;" vertex="1" parent="1">
          <mxGeometry x="135.79" y="1150" width="14.21" height="9" as="geometry" />
        </mxCell>
        <mxCell id="3F2KiduaBhPpFBt7jVCu-31" value="li" style="rounded=0;whiteSpace=wrap;html=1;" vertex="1" parent="1">
          <mxGeometry x="100" y="1300" width="160" height="22.5" as="geometry" />
        </mxCell>
        <mxCell id="3F2KiduaBhPpFBt7jVCu-32" value="" style="rounded=0;whiteSpace=wrap;html=1;" vertex="1" parent="1">
          <mxGeometry x="320" y="900" width="450" height="740" as="geometry" />
        </mxCell>
        <mxCell id="3F2KiduaBhPpFBt7jVCu-33" value="product-intro" style="text;strokeColor=none;align=center;fillColor=none;html=1;verticalAlign=middle;whiteSpace=wrap;rounded=0;" vertex="1" parent="1">
          <mxGeometry x="320" y="1620" width="70" height="20" as="geometry" />
        </mxCell>
        <mxCell id="3F2KiduaBhPpFBt7jVCu-34" value="" style="rounded=0;whiteSpace=wrap;html=1;" vertex="1" parent="1">
          <mxGeometry x="330" y="910" width="430" height="150" as="geometry" />
        </mxCell>
        <mxCell id="3F2KiduaBhPpFBt7jVCu-35" value="product-colloction" style="text;strokeColor=none;align=center;fillColor=none;html=1;verticalAlign=middle;whiteSpace=wrap;rounded=0;" vertex="1" parent="1">
          <mxGeometry x="330" y="1030" width="110" height="30" as="geometry" />
        </mxCell>
        <mxCell id="3F2KiduaBhPpFBt7jVCu-36" value="" style="rounded=0;whiteSpace=wrap;html=1;" vertex="1" parent="1">
          <mxGeometry x="330" y="1070" width="430" height="540" as="geometry" />
        </mxCell>
        <mxCell id="3F2KiduaBhPpFBt7jVCu-37" value="product-intro-tab" style="text;strokeColor=none;align=center;fillColor=none;html=1;verticalAlign=middle;whiteSpace=wrap;rounded=0;" vertex="1" parent="1">
          <mxGeometry x="330" y="1580" width="110" height="30" as="geometry" />
        </mxCell>
        <mxCell id="3F2KiduaBhPpFBt7jVCu-42" value="li" style="rounded=0;whiteSpace=wrap;html=1;" vertex="1" parent="1">
          <mxGeometry x="216.56" y="1110" width="26.88" height="10" as="geometry" />
        </mxCell>
        <mxCell id="3F2KiduaBhPpFBt7jVCu-43" value="折叠选项卡" style="text;strokeColor=none;align=center;fillColor=none;html=1;verticalAlign=middle;whiteSpace=wrap;rounded=0;" vertex="1" parent="1">
          <mxGeometry x="145" y="1470" width="75" height="30" as="geometry" />
        </mxCell>
        <mxCell id="3F2KiduaBhPpFBt7jVCu-44" value="" style="rounded=0;whiteSpace=wrap;html=1;" vertex="1" parent="1">
          <mxGeometry x="340" y="1080" width="410" height="50" as="geometry" />
        </mxCell>
        <mxCell id="3F2KiduaBhPpFBt7jVCu-45" value="tab-nav" style="text;strokeColor=none;align=center;fillColor=none;html=1;verticalAlign=middle;whiteSpace=wrap;rounded=0;" vertex="1" parent="1">
          <mxGeometry x="340" y="1120" width="50" height="10" as="geometry" />
        </mxCell>
        <mxCell id="3F2KiduaBhPpFBt7jVCu-46" value="tab-nav-item" style="rounded=0;whiteSpace=wrap;html=1;" vertex="1" parent="1">
          <mxGeometry x="350" y="1090" width="90" height="30" as="geometry" />
        </mxCell>
        <mxCell id="3F2KiduaBhPpFBt7jVCu-47" value="" style="rounded=0;whiteSpace=wrap;html=1;" vertex="1" parent="1">
          <mxGeometry x="450" y="1090" width="90" height="30" as="geometry" />
        </mxCell>
        <mxCell id="3F2KiduaBhPpFBt7jVCu-48" value="" style="rounded=0;whiteSpace=wrap;html=1;" vertex="1" parent="1">
          <mxGeometry x="550" y="1090" width="90" height="30" as="geometry" />
        </mxCell>
        <mxCell id="3F2KiduaBhPpFBt7jVCu-49" value="" style="rounded=0;whiteSpace=wrap;html=1;" vertex="1" parent="1">
          <mxGeometry x="650" y="1090" width="90" height="30" as="geometry" />
        </mxCell>
        <mxCell id="3F2KiduaBhPpFBt7jVCu-50" value="" style="rounded=0;whiteSpace=wrap;html=1;" vertex="1" parent="1">
          <mxGeometry x="340" y="1140" width="410" height="430" as="geometry" />
        </mxCell>
        <mxCell id="3F2KiduaBhPpFBt7jVCu-51" value="tab-panel" style="text;strokeColor=none;align=center;fillColor=none;html=1;verticalAlign=middle;whiteSpace=wrap;rounded=0;" vertex="1" parent="1">
          <mxGeometry x="340" y="1550" width="60" height="20" as="geometry" />
        </mxCell>
        <mxCell id="3F2KiduaBhPpFBt7jVCu-52" value="" style="rounded=0;whiteSpace=wrap;html=1;" vertex="1" parent="1">
          <mxGeometry x="350" y="1150" width="390" height="250" as="geometry" />
        </mxCell>
        <mxCell id="3F2KiduaBhPpFBt7jVCu-53" value="tab-panel-item" style="text;strokeColor=none;align=center;fillColor=none;html=1;verticalAlign=middle;whiteSpace=wrap;rounded=0;" vertex="1" parent="1">
          <mxGeometry x="350" y="1380" width="80" height="20" as="geometry" />
        </mxCell>
        <mxCell id="3F2KiduaBhPpFBt7jVCu-54" value="折叠显示" style="rounded=0;whiteSpace=wrap;html=1;dashed=1;dashPattern=12 12;" vertex="1" parent="1">
          <mxGeometry x="350" y="1430" width="390" height="60" as="geometry" />
        </mxCell>
        <mxCell id="3F2KiduaBhPpFBt7jVCu-55" value="tab-panel-item" style="text;strokeColor=none;align=center;fillColor=none;html=1;verticalAlign=middle;whiteSpace=wrap;rounded=0;" vertex="1" parent="1">
          <mxGeometry x="350" y="1470" width="80" height="20" as="geometry" />
        </mxCell>
        <mxCell id="3F2KiduaBhPpFBt7jVCu-56" value="" style="rounded=0;whiteSpace=wrap;html=1;" vertex="1" parent="1">
          <mxGeometry x="370" y="1159" width="350" height="51" as="geometry" />
        </mxCell>
        <mxCell id="3F2KiduaBhPpFBt7jVCu-57" value="ul" style="text;strokeColor=none;align=center;fillColor=none;html=1;verticalAlign=middle;whiteSpace=wrap;rounded=0;" vertex="1" parent="1">
          <mxGeometry x="370" y="1189" width="40" height="10" as="geometry" />
        </mxCell>
        <mxCell id="3F2KiduaBhPpFBt7jVCu-58" value="&lt;div style=&quot;line-height: 70%;&quot;&gt;&lt;b style=&quot;font-size: 8px; background-color: initial;&quot;&gt;li&lt;/b&gt;&lt;/div&gt;" style="whiteSpace=wrap;html=1;align=center;" vertex="1" parent="1">
          <mxGeometry x="480" y="1169" width="120" height="11" as="geometry" />
        </mxCell>
        <mxCell id="3F2KiduaBhPpFBt7jVCu-59" value="&lt;div style=&quot;line-height: 70%;&quot;&gt;&lt;b style=&quot;font-size: 8px; background-color: initial;&quot;&gt;li&lt;/b&gt;&lt;/div&gt;" style="whiteSpace=wrap;html=1;align=center;" vertex="1" parent="1">
          <mxGeometry x="480" y="1180" width="120" height="11" as="geometry" />
        </mxCell>
        <mxCell id="3F2KiduaBhPpFBt7jVCu-60" value="img" style="rounded=0;whiteSpace=wrap;html=1;" vertex="1" parent="1">
          <mxGeometry x="370" y="1219" width="350" height="51" as="geometry" />
        </mxCell>
        <mxCell id="3F2KiduaBhPpFBt7jVCu-61" value="img" style="rounded=0;whiteSpace=wrap;html=1;" vertex="1" parent="1">
          <mxGeometry x="370" y="1285.75" width="350" height="51" as="geometry" />
        </mxCell>
      </root>
    </mxGraphModel>
  </diagram>
</mxfile>
